<?xml version="1.0" standalone="no"?><!DOCTYPE svg PUBLIC "-//W3C//DTD SVG 1.1//EN" "http://www.w3.org/Graphics/SVG/1.1/DTD/svg11.dtd"><svg t="1632818316482" class="icon" viewBox="0 0 1024 1024" version="1.1" xmlns="http://www.w3.org/2000/svg" p-id="3061" xmlns:xlink="http://www.w3.org/1999/xlink" width="128" height="128"><defs><style type="text/css"></style></defs><path d="M951.808 938.496H73.344a33.024 33.024 0 0 1-33.792-32.256V129.92a33.0624 33.0624 0 0 1 33.792-32.384h878.464A33.024 33.024 0 0 1 985.6 129.792v217.216a33.1392 33.1392 0 0 1-33.408 32.384l-845.056 8.96v485.504h810.88v-94.592a33.8176 33.8176 0 0 1 35.712-31.872c17.152 0.896 30.976 14.72 31.872 31.872v126.848a33.0624 33.0624 0 0 1-33.792 32.384c0.128 0 0 0 0 0zM107.136 162.304v161.408l810.88-8.576V162.304H107.136z" p-id="3062"></path><path d="M379.712 780.8768c-8.96 0-17.536-3.328-23.936-9.472l-137.344-131.456c-12.672-12.032-13.184-32-1.152-44.544l1.152-1.152 124.8-119.552c13.44-12.672 34.432-12.672 47.872 0 12.672 12.032 13.184 32 1.152 44.544l-1.152 1.152-100.992 96.64 113.408 108.672c12.672 12.032 13.184 32 1.152 44.544l-1.152 1.152c-6.4 6.144-14.976 9.472-23.808 9.472zM517.8624 785.7152c-3.584 0-7.168-0.64-10.496-1.664a31.9744 31.9744 0 0 1-21.76-39.68c0.128-0.384 0.256-0.768 0.384-1.28l90.88-260.992c6.4-17.28 25.344-26.24 42.752-20.48 17.024 4.992 26.624 22.784 21.76 39.68l-0.384 1.152-90.88 261.12a33.7152 33.7152 0 0 1-32.256 22.144zM725.632 775.04c-8.832 0-17.408-3.328-23.936-9.472-12.672-12.032-13.184-32-1.152-44.544l1.152-1.152 100.992-96.64-100.992-96.64c-12.672-12.032-13.184-32-1.152-44.544l1.152-1.152c13.44-12.672 34.432-12.672 47.744 0l124.928 119.552c12.672 12.032 13.184 32 1.152 44.544l-1.152 1.152-124.928 119.552c-6.4 5.888-14.976 9.344-23.808 9.344z" p-id="3063"></path></svg>